/* XPM */
static char *result[] = {
/* columns rows colors chars-per-pixel */
"64 64 9 1 ",
"  c #A22633",
". c #F77622",
"X c #E43B44",
"o c #FEAE34",
"O c #FEE761",
"+ c #5A6988",
"@ c #D6DFE7",
"# c white",
"$ c None",
/* pixels */
"$$$$$$$$$$$$$$$$$$$$$$$$$$$$$$$$$$$$$$$$$$$$$$$$$$$$$$$$$$$$$$$$",
"$$$$$$$$$$$$$$$$$$$$$$$$$$$$$$$$$$$$$$$$$$$$$$$$$$$$$$$$$$$$$$$$",
"$$$$$$$$$$$$$$$$$$$$$$$$$$$$$$$$$$$$$$$$$$$$$$$$$$$$$$$$$$$$$$$$",
"$$$$$$$$$$$$$$$$$$$$$$$$$$$$$$$$$$$$$$$$$$$$$$$$$$$$$$$$$$$$$$$$",
"$$$$$$$$$$$$$$$$$$$$$$$$$$$$$$$$$$$$$$$$$$$$$$$$$$$$$$$$$$$$$$$$",
"$$$$$$$$$$$$$$$$$$$$$$$$$$$$$$$$$$$$$$$$$$$$$$$$$$$$$$$$$$$$$$$$",
"$$$$$$$$$$$$$$$$$$$$$$$$$$$$$$$$$$$$$$$$$$$$$$$$$$$$$$$$$$$$$$$$",
"$$$$$$$$$$$$$$$$$$$$$$$$$$$$$$$$$$$$$$$$$$$$$$$$$$$$$$$$$$$$$$$$",
"$$$$$$$$$$$$$$$$$$$$$$$$$$$$$$$$$$$$$$$$$$$$$$$$$$$$$$$$$$$$$$$$",
"$$$$$$$$$$$$$$$$$$$$$$$$$$$$$$$$$$$$$$$$$$$$$$$$$$$$$$$$$$$$$$$$",
"$$$$$$$$$$$$$$$$$$$$$$$$$$$$$$$$$$$$$$$$$$$$$$$$$$$$$$$$$$$$$$$$",
"$$$$$$$$$$$$$$$$$$$$$$$$$$$$$$$$$$$$$$$$$$$$$$$$$$$$$$$$$$$$$$$$",
"$$$$$$$$$$$$$$$$$$$$$$$$$$$$$XXXX$$$$$$$$$$$$$$$$$$$$$$$$$$$$$$$",
"$$$$$$$$$$$$$$$$$$$$$$$$$$$$$XXXX$$$$$#######$$$$$$$$$$$$$$$$$$$",
"$$$$$$$$$$$$$$$$$$$$$$$$$$$$$XXXX$$$##########$$$$$$$$$$$$$$$$$$",
"$$$$$$$$$$$$$$$$$$$$$$$$$$$$$XXXX$##############$$$$$$$$$$$$$$$$",
"$$$$$$$$$$$$$$$$$$$$$$$$ XXXXXXXXXXXX############$$$$$$$$$$$$$$$",
"$$$$$$$$$$$$$$$$$$$$$$$$ XXXXOOOOXXXX############$$$$$$$$$$$$$$$",
"$$$$$$$$$$$$$$$$$$$$$$$$  XXXOOOOXXXX#############$$$$$$$$$$$$$$",
"$$$$$$$$$$$$$$$$$$$$$$$$   XXOOOOXXXX####+#########$$$$$$$$$$$$$",
"$$$$$$$$$$$$$$$$$$$$$$$$$$$$XXXXXX#######++++######$$$$$$$$$$$$$",
"$$$$$$$$$$$$$$$$$$$$$$$$$$$$XXXXX ########+#+######$$$$$$$$$$$$$",
"$$$$$$$$$$$$$$$$$$$$$$$$$$$$XXXX  ########+++######$$$$$$$$$$$$$",
"$$$$$$$$$$$$$$$$$$$$$$$$$$$$      ########+++#####@$$$$$$$$$$$$$",
"$$$$$$$$$$$$$$$$$$$$$$$$$$$$##############+++#####@.......$$$$$$",
"$$$$$$$$$$$$$$$$$$$$$$$$$$$$####################@@@ooooo....$$$$",
"$$$$$$$$$$$$$$$$$$$$$$$$$$$$#####################@@ooooooo..$$$$",
"$$$$$####$#$#$$$$$$$$$$$$$$$#####################@@oooooooo.$$$$",
"$$$$$#######$#$$$$$$$$$$$$$$#####################@@oooooo...$$$$",
"$$$##########$#$$$$$$$$$$$$$####################@@ooooooo...$$$$",
"$$$#########$###$$$$$$$$$$$$####################@@ooooooo..$$$$$",
"$$$$##############$$$$$$$$$$####################@@@oooo...$$$$$$",
"$$$#################$$$$$$$$###################@@@......$$$$$$$$",
"$$$##################$$$$$$$######################$$$$$$$$$$$$$$",
"$$$###############################################$$$$$$$$$$$$$$",
"$$$###############################################$$$$$$$$$$$$$$",
"$$$###############################################$$$$$$$$$$$$$$",
"$$$################################################$$$$$$$$$$$$$",
"$$$################################################$$$$$$$$$$$$$",
"$$$################################################$$$$$$$$$$$$$",
"$$$###############################################@$$$$$$$$$$$$$",
"$$$###############################################@$$$$$$$$$$$$$",
"$$$##############################################@@$$$$$$$$$$$$$",
"$$$$#############################################@@$$$$$$$$$$$$$",
"$$$$$###########################################@@@$$$$$$$$$$$$$",
"$$$$$##########################################@@@@$$$$$$$$$$$$$",
"$$$$$$########################################@@@@@$$$$$$$$$$$$$",
"$$$$$$#######################################@@@@@@$$$$$$$$$$$$$",
"$$$$$$$####################################@@@@@@@@$$$$$$$$$$$$$",
"$$$$$$$$##################################@@@@@@@@@$$$$$$$$$$$$$",
"$$$$$$$$#################################@@@@@@@@@$$$$$$$$$$$$$$",
"$$$$$$$$$###############################@@@@@@@@@$$$$$$$$$$$$$$$",
"$$$$$$$$$$$###########################@@@@@@@@@@$$$$$$$$$$$$$$$$",
"$$$$$$$$$$$$#########################@@@@@@@@@@$$$$$$$$$$$$$$$$$",
"$$$$$$$$$$$$$########################@@@@@@@@@$$$$$$$$$$$$$$$$$$",
"$$$$$$$$$$$$$$###################@@@@@@@@@@@@$$$$$$$$$$$$$$$$$$$",
"$$$$$$$$$$$$$$$$$#############@@@@@@@@@@@@@$$$$$$$$$$$$$$$$$$$$$",
"$$$$$$$$$$$$$$$$$$$$$$$$$$$$$$$$$$$$$$$$$$$$$$$$$$$$$$$$$$$$$$$$",
"$$$$$$$$$$$$$$$$$$$$$$$$$$$$$$$$$$$$$$$$$$$$$$$$$$$$$$$$$$$$$$$$",
"$$$$$$$$$$$$$$$$$$$$$$$$$$$$$$$$$$$$$$$$$$$$$$$$$$$$$$$$$$$$$$$$",
"$$$$$$$$$$$$$$$$$$$$$$$$$$$$$$$$$$$$$$$$$$$$$$$$$$$$$$$$$$$$$$$$",
"$$$$$$$$$$$$$$$$$$$$$$$$$$$$$$$$$$$$$$$$$$$$$$$$$$$$$$$$$$$$$$$$",
"$$$$$$$$$$$$$$$$$$$$$$$$$$$$$$$$$$$$$$$$$$$$$$$$$$$$$$$$$$$$$$$$",
"$$$$$$$$$$$$$$$$$$$$$$$$$$$$$$$$$$$$$$$$$$$$$$$$$$$$$$$$$$$$$$$$"
};
