/* XPM */
static char *result[] = {
/* columns rows colors chars-per-pixel */
"64 64 4 1 ",
"  c #265C42",
". c #3E8948",
"X c #124E89",
"o c None",
/* pixels */
"oooooooooooooooooooooooooooooooooooooooooooooooooooooooooooooooo",
"oooooooooooooooooooooooooooooooooooooooooooooooooooooooooooooooo",
"oooooooooooooooooooooooooooooooooooooooooooooooooooooooooooooooo",
"oooooooooooooooooooooooooooooooooooooooooooooooooooooooooooooooo",
"oooooooooooooooooooooooooooooooooooooooooooooooooooooooooooooooo",
"oooooooooooooooooooooooooooooooooooooooooooooooooooooooooooooooo",
"oooooooooooooooooooooooooooooooooooooooooooooooooooooooooooooooo",
"oooooooooooooooooooooooooooooooooooooooooooooooooooooooooooooooo",
"oooooooooooooooooooooooooooooooooooooooooooooooooooooooooooooooo",
"oooooooooooooooooooooooooooooooooooooooooooooooooooooooooooooooo",
"oooooooooooooooooooooooooooooooooooooooooooooooooooooooooooooooo",
"oooooooooooooooooooooooooooooooooooooooooooooooooooooooooooooooo",
"oooooooooooooooooooooooooooooooooooooooooooooooooooooooooooooooo",
"oooooooooooooooooooooooooooooooooooooooooooooooooooooooooooooooo",
"oooooooooooooooooooooooooooooooooooooooooooooooooooooooooooooooo",
"oooooooooooooooooooooooooooooooooooooooooooooooooooooooooooooooo",
"oooooooooooooooooooooooooooooooooooooooooooooooooooooooooooooooo",
"oooooooooooooooooooooooooooooooooooooooooooooooooooooooooooooooo",
"oooooooooooooooooooooooooooooooooooooooooooooooooooooooooooooooo",
"oooooooooooooooooooooooooooooooooooooooooooooooooooooooooooooooo",
"oooooooooooooooooooooooooooooooooooooooooooooooooooooooooooooooo",
"oooooooooooooooooooooooooooooooooooooooooooooooooooooooooooooooo",
"oooooooooooooooooooooooooooooooooooooooooooooooooooooooooooooooo",
"oooooooooooooooooooooooooooooooooooooooooooooooooooooooooooooooo",
"oooooooooooooooooooooooooooooooooooooooooooooooooooooooooooooooo",
"oooooooooooooooooooooooooooooooooooooooooooooooooooooooooooooooo",
"oooooooooooooooooooooooooooooooooooooooooooooooooooooooooooooooo",
"oooooooooooooooooooooooooooooooooooooooooooooooooooooooooooooooo",
"oooooooooooooooooooooooooooooooooooooooooooooooooooooooooooooooo",
"oooooooooooooooooooooooooooooooooooooooooooooooooooooooooooooooo",
"oooooooooooooooooooooooooooooooooooooooooooooooooooooooooooooooo",
"oooooooooooooooooooooooooooooooooooooooooooooooooooooooooooooooo",
"oooooooooooooooooooooooooooooooooooooooooooooooooooooooooooooooo",
"oooooooooooooooooooooooooooooooooooooooooooooooooooooooooooooooo",
"oooooooooooooooooooooooooooooooooooooooooooooooooooooooooooooooo",
"ooooooooooooo............ooooooooooooooooooooooooooooooooooooooo",
"ooooooooooo..            ..ooooooooooooooooooooooooooooooooooooo",
"oooooooooo.                ....ooooooooooooooooooooooooooooooooo",
"ooooooooo.                     ...............oooooooooooooooooo",
"ooooooooo.                    ..              ...ooooooooooooooo",
"oooooooo..          ..........                   .oooooooooooooo",
"oooooooo.        ...         .......              .ooooooooooooo",
"oooooooo.     ...             .    ......          .oooooooooooo",
"ooooooXX.    .                .         ....       .oooooooooooo",
"oooooXXXX. ..                .             ..      .oooooooooooo",
"oooooXX....                  .              ...    .oooooooooooo",
"oooooXX.                     .                ... ..oooooooooooo",
"oooooX.                      .                  ...Xoooooooooooo",
"oooooX.                     .                     .XXooooooooooo",
"oooooX.                   ...                     .XXXoooooooooo",
"oooooX..                 ..XX..                   .XXXoooooooooo",
"oooooXXX.              ...XXXX.                   .XXXoooooooooo",
"oooooXXXX.            .XXXXoXXX.                   .XXoooooooooo",
"ooooooXXX....     ....XXXXoooXXX..                 .XXoooooooooo",
"ooooooooXXXXX.....XXXXXXoooooXXXX..                .XXXooooooooo",
"oooooooooXXXXXXXXXXXXXooooooooXXXXX..             ..XXXooooooooo",
"oooooooooooooXXXXXXXooooooooooooXXXXX...        ..XXXXoooooooooo",
"ooooooooooooooooooooooooooooooooooooXXXX........XXXXXXoooooooooo",
"oooooooooooooooooooooooooooooooooooooXXXXXXXXXXXXXXXoooooooooooo",
"oooooooooooooooooooooooooooooooooooooooooooooooooooooooooooooooo",
"oooooooooooooooooooooooooooooooooooooooooooooooooooooooooooooooo",
"oooooooooooooooooooooooooooooooooooooooooooooooooooooooooooooooo",
"oooooooooooooooooooooooooooooooooooooooooooooooooooooooooooooooo",
"oooooooooooooooooooooooooooooooooooooooooooooooooooooooooooooooo"
};
