/* XPM */
static char *result[] = {
/* columns rows colors chars-per-pixel */
"64 64 5 1 ",
"  c #0099DB",
". c #8B9BB4",
"X c #C0CBDC",
"o c white",
"O c None",
/* pixels */
"OOOOOOOOOOOOOOOOOOOOOOOOOOOOOOOOOOOOOOOOOOOOOOOOOOOOOOOOOOOOOOOO",
"OOOOOOOOOOOOOOOOOOOOOOOOOOOOOOOOOOOOOOOOOOOOOOOOOOOOOOOOOOOOOOOO",
"OOOOOOOOOOOOOOOOOOOOOOOOOOOOOOOOOOOOOOOOOOOOOOOOOOOOOOOOOOOOOOOO",
"OOOOOOOOOOOOOOOOOOOOOOOOOOOOOOOOOOOOOOOOOOOOOOOOOOOOOOOOOOOOOOOO",
"OOOOOOOOOOOOOOOOOOOOOOOOOOOOOOOOOOOOOOOOOOOOOOOOOOOOOOOOOOOOOOOO",
"OOOOOOOOOOOOOOOOOOOOOOOOOOOOOOOOOOOOOOOOOOOOOOOOOOOXXXOOOOOOOOOO",
"OOOOOOOOOOOOOOOOOOOOOOOOOOOOOOOOOOOOOOOOOOOOOOOOOXXXXXXOOOOOOOOO",
"OOOOOOOOOOOOOOOOOOOOOOOOOOOOOOOOOOOOOOOOOOOOXXXXXXXXXXXOOOOOOOOO",
"OOOOOOOOOOOOOOOOOOOOOOOOOOOOOOOOOOOOOOOOOOOXXXXXXXXXXXOOOOOOOOOO",
"OOOOOOOOOOOOOOOOOOOOOOOOOOOOOOOOOOOOOOOOOXXXXXXXXXXXXOOOOOOOOOOO",
"OOOOOOOOOOOOOOOOOOOOOOOOOOOOOOOOOOOOOOOOXXXXXXoooXXXXOOOOOOOOOOO",
"OOOOOOOOOOOOOOOOOOOOOOOOOOOOOOOOOOOOOOOXXXXoooooooXXXOOOOOOOOOOO",
"OOOOOOOOOOOOOOOOOOOOOOOOOOOOOOOOOOOOOOXXoooooooooXXXXOOOOOOOOOOO",
"OOOOOOOOOOOOOOOOOOOOOOOOOOOOOOOOOOOOXXooooooooXXXXXXOOOOOOOOOOOO",
"OOOOOOOOOOOOOOOOOOOOOOOOOOOOOOOOOOOXXooooooXXXXXXXXXOOOOOOOOOOOO",
"OOOOOOOOOOOOOOOOOOOOOOOOOOOOOOOOOXXoooooXXXXXXXXXXXOOOOOOOOOOOOO",
"OOOOOOOOOOOOOOOOOOOOOOOOOOOOOOOOXXooooXXXXXXXXXXXXXOOOOOOOOOOOOO",
"OOOOOOOOOOOOOOOOOOOOOOOOOOOOOOOXXooooXXXXXXXXXXXXXXOOOOOOOOOOOOO",
"OOOOOOOOOOOOOOOOOOOOOOOOOOOOOXXXoooXXXXXXXXXXXXXXXXOOOOOOOOOOOOO",
"OOOOOOOOOOOOOOOOOOOOOOOOOOOOXXXoooXXXXXXXXXXXXXXXXXOOOOOOOOOOOOO",
"OOOOOOOOOOOOOOOOOOOOOOOOOOXXXXooooXXXXXXXXXXXXXXXXXOOOOOOOOOOOOO",
"OOOOOOOOOOOOOOOOOOOOOOOOOXXXXooooXXXXXXXXXXXXXXXXXXOOOOOOOOOOOOO",
"OOOOOOOOOOOOOOOOOOOOOOOOXXXXooooXXXXXXXXXXXXXXXXXXXOOOOOOOOOOOOO",
"OOOOOOOOOOOOOOOOOOOOOOOXXXooooXXXXXXXXXXXXXXXXXXXXOOOOOOOOOOOOOO",
"OOOOOOOOOOOOOOOOOOOOOOXXXooooXXXXXXXXXXXXXXXXXXXXXOOOOOOOOOOOOOO",
"OOOOOOOOOOOOOOOOOOOOOXXXooooXXXXXXXXXXXXXXXXXXXXXXOOOOOOOOOOOOOO",
"OOOOOOOOOOOOOOOOOOOOOXXXoooXXXXXXXXXXXXXXXXXXXXXXXOOOOOOOOOOOOOO",
"OOOOOOOOOOOOOOOOOOOOXXXoooXXXXXXXXXXXXXXXXXXXXXXXXOOOOOOOOOOOOOO",
"OOOOOOOOOOOOOOOOOOOXXXoooXXXXXXXXXXXXXXXXXXXXXXXXXXOOOOOOOOOOOOO",
"OOOOOOOOOOOOOOOOOOOXXoooXXXXXXXXXXXXXXXXXXXXXXXXXXXOOOOOOOOOOOOO",
"OOOOOOOOOOOOOOOOOOXXoooXXXXXXXXXXXXXXXXXXXXXXXXXXXXOOOOOOOOOOOOO",
"OOOOOOOOOOOOOOOOOXXXoooXXXXXXXXXXXXXXXXXXXXXXXXXXXXOOOOOOOOOOOOO",
"OOOOOOOOOOOOOOOOXXXoooXXXXXXXXXXXXXXXXXXXXXXXXXXXXXOOOOOOOOOOOOO",
"OOOOOOOOOOOOOOOXXXXoooXXXXXXXXXXXXXXXXXXXXXXXXXXXXXOOOOOOOOOOOOO",
"OOOOOOOOOOOOOOOXXXXoooXXXXXXXXXXXXXXXXXXXXXXXXXXXXXOOOOOOOOOOOOO",
"OOOOOOOOOOOOOOXXXXXXoXXXXXXXXXXXXXXXXXXXXXXXXXXXXXXOOOOOOOOOOOOO",
"OOOOOOOOOOOOOOXXXXXXXXXXXXXXXXXXXXXXXXXXXXXXXXXXXXXXOOOOOOOOOOOO",
"OOOOOOOOOOOOOXXXXXXXXXXXXXXXXXXXXXXXXXXXXXXXXXXXXXXXOOOOOOOOOOOO",
"OOOOOOOOOOOOOXXXXXXXXXXXXXXXXXXXXXXXXXXXXXXXXXXXX.XXOOOOOOOOOOOO",
"OOOOOOOOOOOOXXXXXXXXXXXXXXXXXXXXXXXXXXXXXXXXXXXX...XOOOOOOOOOOOO",
"OOOOOOOOOOOOXXXXXXXXXXXXXXXXXXXXXXXXXXXXXXXXXXXX...XOOOOOOOOOOOO",
"OOOOOOOOOOOXXXXXXXXXXXXXXXXXXXXXXXXXXXXXXXXXXXXX...XOOOOOOOOOOOO",
"OOOOOOOOOOOXXXXXXXXXXXXXXXXXXXXXXXXXXXXXXXXXXXXX..OXOOOOOOOOOOOO",
"OOOOOOOOOOXXXXXXXXXXXXXXXXXXXXXXXXXXXXXXXXXXXXXX..OOOOOOOOOOOOOO",
"OOOOOOOOOOXXXXXXXXXXXXXXXXXXXXXXXXXXXXXXXXXXXXXX..OOOOOOOOOOOOOO",
"OOOOOOOOOXXXXXXXXXXXXXXXXXXXXXXXXXXXXXXXXXXXXXXX...OOOOOOOOOOOOO",
"OOOOOOOO XXXXXXXXXXXXXXXXXXXXXXXXXXXXXXXXXXXXXX....OXOOOOOOOOOOO",
"OOOOOOO XXXXXXXXXXXXXXXXXXXXXXXXXXXXXXXXXXXXXXX.....XOOOOOOOOOOO",
"OOOOOO  XXXXXXXXXXXXXXXXXXXXXXXXXXXXXXXXXXXXXX......OOOOOOOOOOOO",
"OOOOOO  XXXXXXXXXXXXXXXXXXXXXXXXXXXXXXXXXXXXXX......OOOOOOOOOOOO",
"OOOOOOO XXXXXXXXXXXXXXXXXXXXXXXXXXXXXXXXXXXX.........OOOOOOOOOOO",
"OOOOOOOO XXXXXXXXXXXXXXXXXXXXXXXXXXXXXXXXX...........XOOOOOOOOOO",
"OOOOOOOOO XXXXXXXXXXXXXXXXXXXXXXXXXXXXX.............XX OOOOOOOOO",
"OOOOOOOOOO XXXXXXXXXXXXXXXXXXXXXXX.................XXX  OOOOOOOO",
"OOOOOOOOOOO    XXXXXXXXXXXX......................XXXX   OOOOOOOO",
"OOOOOOOOOOOO      XXXXXXXX......................XX     OOOOOOOOO",
"OOOOOOOOOOOOOOOO       XXXX.........X.........XX    OOOOOOOOOOOO",
"OOOOOOOOOOOOOOOOOOO        XXXXXXXXXXXXXXXXXXX    OOOOOOOOOOOOOO",
"OOOOOOOOOOOOOOOOOOOOOOO                         OOOOOOOOOOOOOOOO",
"OOOOOOOOOOOOOOOOOOOOOOOOOOOO                  OOOOOOOOOOOOOOOOOO",
"OOOOOOOOOOOOOOOOOOOOOOOOOOOOOOOOOOOOOOOOOOOOOOOOOOOOOOOOOOOOOOOO",
"OOOOOOOOOOOOOOOOOOOOOOOOOOOOOOOOOOOOOOOOOOOOOOOOOOOOOOOOOOOOOOOO",
"OOOOOOOOOOOOOOOOOOOOOOOOOOOOOOOOOOOOOOOOOOOOOOOOOOOOOOOOOOOOOOOO",
"OOOOOOOOOOOOOOOOOOOOOOOOOOOOOOOOOOOOOOOOOOOOOOOOOOOOOOOOOOOOOOOO"
};
