/* XPM */
static char *result[] = {
/* columns rows colors chars-per-pixel */
"64 64 13 1 ",
"  c #3E2731",
". c #733E39",
"X c #2F6636",
"o c #ED1C24",
"O c #3E8948",
"+ c #63C74D",
"@ c #B5E61D",
"# c #FFC90E",
"$ c #FFF200",
"% c #9BCF7E",
"& c #124E89",
"* c #A349A4",
"= c #5DC6F3",
/* pixels */
"================================================================",
"=====+++========+++++++++++=============+++++++++++*+++==*======",
"===++++++++++==++++++++++++++++++++++++++++++++++++*#++=#*=++===",
"==+++++++++++++++++++++++++++++++++++++++++%%%+++++**+++**++++==",
"=+++o$+++$o+++++++++++++++++@@+++++++++++++%%%%%+++**+++*++*++==",
"=+++ooo$ooo+++++++++++++++@@@O++++++%%%+++%%%%%%%+++OO++O+#*+++=",
"=++++oooooo++++++++++++++++@+OO@@+++%%%%%%%%%%%%%++++O+OO+**+++=",
"=++++ooooo++++%+++++++++++++++O+@++%%O%%%%%%%%%%%++++OOO+OO++++=",
"=++++oooo+OO++%%%++++++++O++++OO%%%%OO%%%%%%%%%%%+++++OO+O+++++=",
"=++++++O+OXO+++%%%%%%%%%%OOO@OOO%%%%O%%%%%%%%%%%%%++++O+OO+++++=",
"=++++++OOXO+++++%%%%%%%%%%%@@O%OO%%OO%%%%%%%%%%%%+++++O+O++++++=",
"=++++++OXO+++++++%%%%%%%%%%@@%%%O%%@@%%%%%%%%%%%%+++++OOO++++++=",
"=++++++OO+++++++%%%%+++++++++++%OOOO@@%%%%%%%%%%%+++++OO+++++++=",
"=++++++O++++++++%%%+++++++++++++%OO%%@%%%%%%%%%%++++++OO+++++++=",
"=+++++OO+++++++%%%%%+++++++++++%%OO%%%%%%%%%%%%%++++++OO+++++++=",
"=++++OOO++++++%%%%%%%%%%%%%%%%%%%O%%%%%%++++++++++++++OO+++++++=",
"=+++OO+O+++++%%%%%%%%%%%%%%%%%%%%O%%%%%++++++++++++++++++++++++=",
"=++++++O+++++%%%%%%%%%%%%%%%%%%%%O%%%%%%+++++++++++++++++++++++=",
"=++++++O++++%%%%%%%%%%%%%%%%%%%%%O%%%%%%%%%%%%+++++++++++++++++=",
"=++++++O++++%%%%%%%%%%%%%%%%%%%%%O%%%%%%%%%%%%%++++++++++++++++=",
"=++++++O++++%%%%%%%%%%%%%%%%%%%%%O%%%%%%%%%%%%%++++++++++++++++=",
"=+++++++++++++%%%%%%%%%%%%%%%%%%%O%%%%%%%%%%%%%++++++++++++++++=",
"=++++++++++++++O%%%%%%%%%%%%%%%%%%%%%%%%%%%%%%%%+++++++++++++++=",
"=O++++++++OOO+OOO%%%%%%%%%%%%%%%%%%%%%%%%%O%%%%%%++++++++++++++=",
"=O+++++OOOOOOOOOO%%%%%%%%%%%%%O%O%%%%%%%OOOO%%%%O++++++++++++++=",
"=OOOOOOOOOOOOOOOO%%%%%%%%%%%%OOOOOO%%%%OOOOO%%%OO++++++++++++++=",
"=OOOOOOOOOOOOOOOO%%%O%%%%%%%%OOOOOOOO%%OOOOO%%%OOO+++++++++++++=",
"=OOOOOOOOOOOOOOOOOOOOOOOOOOOOOOOOOOOOOOOOOOOOOOOOOO++++++++OOOO=",
"=OOOOOOOOOOOOOOOOOOOOOOOOOOOOOOOOOOOOOOOOOOOOOOOOOOOO+++++OOOOO=",
"=OOOO OO O  OOOOOOOO OOOOOOOOOOOOO  OOOOOOOOOOOOOOOOOOOO+OOOOOO=",
"=                              OO        OOOOO OOOOOOOOO OOO   =",
"=                     .                                   O    =",
"=.............      ................                       ....=",
"=..............................................................=",
"=..............................................................=",
"=..............................................................=",
"=..............................................................=",
"=&.............................................................=",
"=&............................................................&=",
"=&............................................................&=",
"=&   ..............................           .......         &=",
"=&                .....                                       &=",
"=&                                                            &=",
"=&...                              ...........       .........&=",
"=&................     .......................................&=",
"=&............................................................&=",
"=&...........................................................&&=",
"=&...........................................................&&=",
"=&...........................................................&&=",
"=&...........................................................&&=",
"=&  .. ....................................................  &&=",
"=&      ..................................................  &&&=",
"=&&      ................................................ &&&&&=",
"=&&&.   ......        ...................................&&&&&&=",
"=&&&&      .                   &&        &&&&& &&&&&&&&&&&&&&&&=",
"=&&&&&&& &  &&&&&&&& &&&&&&&&&&&&&  &&&&&&&&&&&&&&&&&&&&&&&&&&&=",
"=&&&&&&&&&&&&&&&&&&&&&&&&&&&&&&&&&&&&&&&&&&&&&&&&&&&&&&&=&&&&&&=",
"=&&&&&&&&&&&&&&&&&&&&&&&&&&&&&&&&&&&&&&&&&&&&&&&&&&&&=====&&&&&=",
"=&&&&&&&&&&&&&&&&===&========&&&&&&&&==&&&&&===&&&&========&&&==",
"=&&&&&&&&&&&&&&&&============&&&&&&====&&&&&===&&&==============",
"=&=====&&&&&&&&&&=============&=&=======&&&&====&===============",
"=&========&&&=&&&=========================&=====================",
"===============&================================================",
"================================================================"
};
