/* XPM */
static char *result[] = {
/* columns rows colors chars-per-pixel */
"64 64 2 1 ",
"  c #63C74D",
". c #9BCF7E",
/* pixels */
"................................................................",
"................................................................",
"................................................................",
"................................................................",
"................................................................",
"................................................................",
"................................................................",
"................................................................",
"................................................................",
"................................................................",
"................................................................",
"................................................................",
"..............................          ........................",
".............................            .......................",
"............................            ........................",
"................................................................",
"................................................................",
"..........   ...................................................",
".........     ..................................................",
"..........   ................................         ..........",
"............................................           .........",
"................................ ............         ..........",
"...............................   ..............................",
"................................ ...............................",
"................................................................",
"................................................................",
"................................................................",
"..................       .......................................",
".................         ......................................",
"..................       .......................................",
"................................................................",
"................................................................",
"................................................................",
"................................................................",
"................................................................",
"................................................................",
"................................................................",
"...........................................       ..............",
"..........................................         .............",
"...........................................       ..............",
".......................     ....................................",
".......... ...........       ...................................",
".........   ...........     ....................................",
".......... .....................................................",
"................................................................",
"................................................................",
"................................................................",
"................................................................",
"................................................................",
"................................... ........     ...............",
"..................................   ......       ..............",
"................................... ........     ...............",
"................................................................",
"..............   ...............................................",
".............     ..............................................",
"..............   ...............................................",
"................................................................",
"................................................................",
"................................................................",
"................................................................",
"................................................................",
"................................................................",
"................................................................",
"................................................................"
};
