/* XPM */
static char *result[] = {
/* columns rows colors chars-per-pixel */
"64 64 7 1 ",
"  c #3E2731",
". c #733E39",
"X c #3E8948",
"o c #63C74D",
"O c #9BCF7E",
"+ c #124E89",
"@ c #5DC6F3",
/* pixels */
"@@@@@@@@@@@@@@@@@@@@@@@@@@@@@@@@@@@@@@@@@@@@@@@@@@@@@@@ooooooooo",
"@@@@@ooo@@@@@@@@ooooooooooo@@@@@@@@@@@@@oooooooooooooooooooooooo",
"@@@oooooooooo@@ooooooooooooooooooooooooooooooooooooooooooooooooo",
"@@oooooooooooooooooooooooooooooooooooooooooOOOoooooooooooooooooo",
"@ooooooooooooooooooooooooooooooooooooooooooOOOOOoooooooooooooooo",
"@ooooooooooooooooooooooooooooooooooooooooooooooooooooooooooooooo",
"@ooooooooooooooooooooooooooooooooooooooooooooooooooooooooooooooo",
"@ooooooooooooooooooooooooooooooooooooooooooooooooooooooooooooooo",
"@ooooooooooooooooooooooooooooooooooooooooooooooooooooooooooooooo",
"@ooooooooooooooooooooooooooooooooooooooooooooooooooooooooooooooo",
"@ooooooooooooooooooooooooooooooooooooooooooooooooooooooooooooooo",
"@ooooooooooooooooooooooooooooooooooooooooooooooooooooooooooooooo",
"@ooooooooooooooooooooooooooooooooooooooooooOOOoooooooooooooooOOO",
"@ooooooooooooooooooooooooooooooooooooooooooOOOOOoooooooooOOOOOOO",
"@oooooooooooooooooooooooooooooooooooOOOoooOOOOOOOooooooOOOOOOOOO",
"@ooooooooooooooooooooooOOOOoooooooooOOOOooooooooOOooooOOOOOOOOOO",
"@ooooooooooooOOoooooooOOOOOOOOOOoooOOOOooooooooooOOOoOOOOOOOOOOO",
"@ooooooooooooOOOOooOOOOOOOOOOOOOOOOOOOOOooooooooOOOOOOOOOOOOOOOO",
"@oooooooooooOOOOOOOOOOOOOOOOOOOOOOOOOOOOOOOOOOOOOOOOOOoooooooOOO",
"@oooooooooooOOOOOOOOOOOOOOOOOOOOOOOOOOOOOOOOOOOOOOOOOoooooooooOO",
"@oooooooooooOOOOOOOOOOOOOOOOOOOOOOOOOOOOOOOOOOOOOOOOOOoooooooOOO",
"@oooooooooooooOOOOOOOOOOOOOOOOOOOOOOOOOOOOOOOOOOOOOOOOOOOOOOOOOO",
"@ooooooooooooooXOOOOOOOOOOOOOOOOOOOOOOOOOOOOOOOOOOOOOOOOOOOOOOOO",
"@XooooooooXXXoXXXOOOOOOOOOOOOOOOOOOOOOOOOOXOOOOOOOOOOOOOOOOOOOOO",
"@XoooooXXXXXXXXXXOOOOOOOOOOOOOXOXOOOOOOOXXXXOOOOXOOOOOOOOOOOOOOO",
"@XXXXXXXXXXXXXXXXOOOOOOOOOOOOXXXXXXOOOOXXXXXOOOXXXOOOOOOOOOOOOOO",
"@XXXXXXXXXXXXXXXXOOOXOOOOOOOOXXXXXXXXOOXXXXXOOOXXXXOOOOOOOOXXXXO",
"@XXXXXXXXXXXXXXXXXXXXXXXXXXXXXXXXXXXXXXXXXXXXXXXXXXXXOOOOOXXXXXX",
"@XXXXXXXXXXXXXXXXXXXXXXXXXXXXXXXXXXXXXXXXXXXXXXXXXXXXXXXOXXXXXXX",
"@XXXX XX X  XXXXXXXX XXXXXXXXXXXXX  XXXXXXXXXXXXXXXXXXXXXXXXXX X",
"@                              XX        XXXXX XXXXXXXXX XXX    ",
"@                     .                                   X     ",
"@.............      ................                       .....",
"@...............................................................",
"@...............................................................",
"@...............................................................",
"@...............................................................",
"@+..............................................................",
"@+..............................................................",
"@+..............................................................",
"@+   ..............................           .......           ",
"@+                .....                                         ",
"@+                                                              ",
"@+...                              ...........       ...........",
"@+................     .........................................",
"@+..............................................................",
"@+............................................................. ",
"@+............................................................  ",
"@+............................................................  ",
"@+...........................................................   ",
"@+  .. ....................................................     ",
"@+      ..................................................      ",
"@++      ................................................       ",
"@+++.   ......        ....................................+     ",
"@++++      .                   ++        +++++ +++++++++ +++    ",
"@+++++++ +  ++++++++ +++++++++++++  ++++++++++++++++++++++++++ +",
"@+++++++++++++++++++++++++++++++++++++++++++++++++++++++@+++++++",
"@++++++++++++++++++++++++++++++++++++++++++++++++++++@@@@@++++++",
"@++++++++++++++++@@@+@@@@@@@@++++++++@@+++++@@@++++@@@@@@@@++++@",
"@++++++++++++++++@@@@@@@@@@@@++++++@@@@+++++@@@+++@@@@@@@@@@@@@@",
"@+@@@@@++++++++++@@@@@@@@@@@@@+@+@@@@@@@++++@@@@+@@@@@@@@@@@@@@@",
"@+@@@@@@@@+++@+++@@@@@@@@@@@@@@@@@@@@@@@@@+@@@@@@@@@@@@@@@@@@@@@",
"@@@@@@@@@@@@@@@+@@@@@@@@@@@@@@@@@@@@@@@@@@@@@@@@@@@@@@@@@@@@@@@@",
"@@@@@@@@@@@@@@@@@@@@@@@@@@@@@@@@@@@@@@@@@@@@@@@@@@@@@@@@@@@@@@@@"
};
