/* XPM */
static char *result[] = {
/* columns rows colors chars-per-pixel */
"64 64 7 1 ",
"  c #3E2731",
". c #733E39",
"X c #3E8948",
"o c #63C74D",
"O c #9BCF7E",
"+ c #124E89",
"@ c #5DC6F3",
/* pixels */
"ooooooooooooOOOOOOOOOOOOOOOOOOOOOOOOOOOOOOOOOOOOOOOOoooooooooooo",
"ooooooooooooOOOOOOOOOOOOOOOOOOOOOOOOOOOOOOOOOOOOOOOooooooooooooo",
"ooooooooooooOOOOOOOOOOOOOOOOOOOOOOOOOOOOOOOOOOOOOOoooooooooooooo",
"oooooooooooooOOOOOOOOOOOOOOOOOOOOOOOOOOOOOOOOOOOOooooooooooooooo",
"oooooooooooooOOOOOOOOOOOOOOOOOOOOOOOOOOOOOOOOOOOOooooooooooooooo",
"oooooooooooooOOOOOOOOOOOOOOOOOOOOOOOOOOOOOOOOOOOOooooooooooooooo",
"oooooooooooooOOOOOOooooooooooooOOOOOOOOOOOOOOOOOOooooooooooooooo",
"ooooooooooooooOOOOooooooooooooooOOOOOOOOOOOOOOOOOooooooooooooooo",
"ooooooooooooooOOOOOooooooooooooOOOOOOOOOOOOOOOOOOooooooooooooooo",
"oooooooooooooooOOOOOOOOOOOOOOOOOOOOOOOOOOOOOOOOOOOoooooooooooooo",
"ooooooooooooooooOOOOOOOOOOOOOOOOOOOOOOOOOOOOOOOOOooooooooooooooo",
"oooooooooooooooooOOOOOOOOOOOOOOOOOOOOOOOOOOOOOOOOooooooooooooooo",
"ooooooooooooooooOOOOoooooooooooOOOOOOOOOOOOOOOOOOooooooooooooooo",
"ooooooooooooooooOOOoooooooooooooOOOOOOOOOOOOOOOOoooooooooooooooo",
"oooooooooooooooOOOOOoooooooooooOOOOOOOOOOOOOOOOOoooooooooooooooo",
"ooooooooooooooOOOOOOOOOOOOOOOOOOOOOOOOOOoooooooooooooooooooooooo",
"oooooooooooooOOOOOOOOOOOOOOOOOOOOOOOOOOooooooooooooooooooooooooo",
"@ooooooooooooOOOOOOOOOOOOOOOOOOOOOOOOOOOooooooooooooooooooooooo@",
"@oooooooooooOOOOOOOOOOOOOOOOOOOOOOOOOOOOOOOOOOooooooooooooooooo@",
"@oooooooooooOOOOOOOOOOOOOOOOOOOOOOOOOOOOOOOOOOOoooooooooooooooo@",
"@oooooooooooOOOOOOOOOOOOOOOOOOOOOOOOOOOOOOOOOOOoooooooooooooooo@",
"@oooooooooooooOOOOOOOOOOOOOOOOOOOOOOOOOOOOOOOOOoooooooooooooooo@",
"@ooooooooooooooXOOOOOOOOOOOOOOOOOOOOOOOOOOOOOOOOooooooooooooooo@",
"@XooooooooXXXoXXXOOOOOOOOOOOOOOOOOOOOOOOOOXOOOOOOoooooooooooooo@",
"@XoooooXXXXXXXXXXOOOOOOOOOOOOOXOXOOOOOOOXXXXOOOOXoooooooooooooo@",
"@XXXXXXXXXXXXXXXXOOOOOOOOOOOOXXXXXXOOOOXXXXXOOOXXoooooooooooooo@",
"@XXXXXXXXXXXXXXXXOOOXOOOOOOOOXXXXXXXXOOXXXXXOOOXXXooooooooooooo@",
"@XXXXXXXXXXXXXXXXXXXXXXXXXXXXXXXXXXXXXXXXXXXXXXXXXXooooooooXXXX@",
"@XXXXXXXXXXXXXXXXXXXXXXXXXXXXXXXXXXXXXXXXXXXXXXXXXXXXoooooXXXXX@",
"@XXXX XX X  XXXXXXXX XXXXXXXXXXXXX  XXXXXXXXXXXXXXXXXXXXoXXXXXX@",
"@                              XX        XXXXX XXXXXXXXX XXX   @",
"@                     .                                   X    @",
"@.............      ................                       ....@",
"@..............................................................@",
"@..............................................................@",
"@..............................................................@",
"@..............................................................@",
"@+.............................................................@",
"@+............................................................+@",
"@+............................................................+@",
"@+   ..............................           .......         +@",
"@+                .....                                       +@",
"@+                                                            +@",
"@+...                              ...........       .........+@",
"@+................     .......................................+@",
"@+............................................................+@",
"@+...........................................................++@",
"@+...........................................................++@",
"@+...........................................................++@",
"@+...........................................................++@",
"@+  .. ....................................................  ++@",
"@+      ..................................................  +++@",
"@++      ................................................ +++++@",
"@+++.   ......        ...................................++++++@",
"@++++      .                   ++        +++++ ++++++++++++++++@",
"@+++++++ +  ++++++++ +++++++++++++  +++++++++++++++++++++++++++@",
"@+++++++++++++++++++++++++++++++++++++++++++++++++++++++@++++++@",
"@++++++++++++++++++++++++++++++++++++++++++++++++++++@@@@@+++++@",
"@++++++++++++++++@@@+@@@@@@@@++++++++@@+++++@@@++++@@@@@@@@+++@@",
"@++++++++++++++++@@@@@@@@@@@@++++++@@@@+++++@@@+++@@@@@@@@@@@@@@",
"@+@@@@@++++++++++@@@@@@@@@@@@@+@+@@@@@@@++++@@@@+@@@@@@@@@@@@@@@",
"@+@@@@@@@@+++@+++@@@@@@@@@@@@@@@@@@@@@@@@@+@@@@@@@@@@@@@@@@@@@@@",
"@@@@@@@@@@@@@@@+@@@@@@@@@@@@@@@@@@@@@@@@@@@@@@@@@@@@@@@@@@@@@@@@",
"@@@@@@@@@@@@@@@@@@@@@@@@@@@@@@@@@@@@@@@@@@@@@@@@@@@@@@@@@@@@@@@@"
};
