/* XPM */
static char *result[] = {
/* columns rows colors chars-per-pixel */
"64 64 7 1 ",
"  c #3E2731",
". c #733E39",
"X c #3E8948",
"o c #63C74D",
"O c #9BCF7E",
"+ c #124E89",
"@ c #5DC6F3",
/* pixels */
"OOOOOOOOOOOOOOOOOOOOOOOOOOOOOOOOOOOOOOOOOOOOOOOOOOOOOOOOOOOOOOOO",
"OOOOOOOOOOOOOOOOOOOOOOOOOOOOOOOOOOOOOOOOOOOOOOOOOOOOOOOOOOOOOOOO",
"OOOOOOOOOOOOOOOOOOOOOOOOOOOOOOOOOOOOOOOOOOOOOOOOOOOOOOOOOOOOOOOO",
"OOOOOOOOOOOOOOOOOOOOOOOOOOOOOOOOOOOOOOOOOOOOOOOOOOOOOOOOOOOOOOOO",
"OOOOOOOOOOOOOOOOOOOOOOOOOOOOOOOOOOOOOOOOOOOOOOOOOOOOOOOOOOOOOOOO",
"OOOOOOOOOOOOOOOOOOOOOOOOOOOOOOOOOOOOOOOOOOOOOOOOOOOOOOOOOOOOOOOO",
"OOOOOOOOOOOOOOOOOOOooooooooooooOOOOOOOOOOOOOOOOOOOOOOOOOOOOOOOOO",
"OOOOOOOOOOOOOOOOOOooooooooooooooOOOOOOOOOOOOOOOOOOOOOOOOOOOOOOOO",
"OOOOOOOOOOOOOOOOOOOooooooooooooOOOOOOOOOOOOOOOOOOOOOOOOOOOOOOOOO",
"OOOOOOOOOOOOOOOOOOOOOOOOOOOOOOOOOOOOOOOOOOOOOOOOOOOOOOOOOOOOOOOO",
"OOOOOOOOOOOOOOOOOOOOOOOOOOOOOOOOOOOOOOOOOOOOOOOOOOOoooooOOOOOOOO",
"OOOOOOOOOOOOOOOOOOOOOOOOOOOOOOOOOOOOOOOOOOOOOOOOOOoooooooOOOOOOO",
"OOOOOOOOOOOOOOOOOOOOoooooooooooOOOOOOOOOOOOOOOOOOOOoooooOOOOOOOO",
"OOOOOoooooooOOOOOOOoooooooooooooOOOOOOOOOOOOOOOOOOOOOOOOOOOOOOOO",
"OOOOoooooooooOOOOOOOoooooooooooOOOOOOOOOOOOOOOOOOOOOOOOOOOOOOOOO",
"OOOOOoooooooOOOOOOOOOOOOOOOOOOOOOOOOOOOOooooooooOOOOOOOOOOOOOOOO",
"OOOOOOOOOOOOOOOOOOOOOOOOOOOOOOOOOOOOOOOooooooooooOOOOOOOOOOOOOOO",
"OOOOOOOOOOOOOOOOOOOOOOOOOOOOOOOOOOOOOOOOooooooooOOOOOOOOOOOOOOOO",
"OOOOOOOOOOOOOOOOOOOOOOOOOOOOOOOOOOOOOOOOOOOOOOOOOOOOOOoooooooOOO",
"OOOOOOOOOOOOOOOOOOOOOOOOOOOOOOOOOOOOOOOOOOOOOOOOOOOOOoooooooooOO",
"OOOOOOOOOOOOOOOOOOOOOOOOOOOOOOOOOOOOOOOOOOOOOOOOOOOOOOoooooooOOO",
"OOOOOOOOOOOOOOOOOOOOOOOOOOOOOOOOOOOOOOOOOOOOOOOOOOOOOOOOOOOOOOOO",
"XOOOOOOOOOOOOOOXOOOOOOOOOOOOOOOOOOOOOOOOOOOOOOOOOOOOOOOOOOOOOOOO",
"XXOOOOOOOOXXXOXXXOOOOOOOOOOOOOOOOOOOOOOOOOXOOOOOOOOOOOOOOOOOOOOO",
"XXOOOOOXXXXXXXXXXOOOOOOOOOOOOOXOXOOOOOOOXXXXOOOOXOOOOOOOOOOOOOOO",
"XXXXXXXXXXXXXXXXXOOOOOOOOOOOOXXXXXXOOOOXXXXXOOOXXXOOOOOOOOOOOOOO",
"XXXXXXXXXXXXXXXXXOOOXOOOOOOOOXXXXXXXXOOXXXXXOOOXXXXOOOOOOOOXXXXO",
"XXXXXXXXXXXXXXXXXXXXXXXXXXXXXXXXXXXXXXXXXXXXXXXXXXXXXOOOOOXXXXXX",
"XXXXXXXXXXXXXXXXXXXXXXXXXXXXXXXXXXXXXXXXXXXXXXXXXXXXXXXXOXXXXXXX",
" XXXX XX X  XXXXXXXX XXXXXXXXXXXXX  XXXXXXXXXXXXXXXXXXXXXXXXXX X",
"                               XX        XXXXX XXXXXXXXX XXX    ",
"                      .                                   X     ",
"..............      ................                       .....",
"................................................................",
"................................................................",
"................................................................",
"................................................................",
"................................................................",
"................................................................",
"................................................................",
"     ..............................           .......           ",
"                  .....                                         ",
"                                                                ",
".....                              ...........       ...........",
"..................     .........................................",
" ...............................................................",
"  ............................................................. ",
"  ............................................................  ",
"  ............................................................  ",
"  ...........................................................   ",
"    .. ....................................................     ",
"        ..................................................      ",
"         ................................................       ",
"  ...   ......        ....................................+     ",
"           .                   ++        +++++ +++++++++ +++    ",
" ++++ ++ +  ++++++++ +++++++++++++  ++++++++++++++++++++++++++ +",
"++++++++++++++++++++++++++++++++++++++++++++++++++++++++@+++++++",
"+++++++++++++++++++++++++++++++++++++++++++++++++++++@@@@@++++++",
"+++++++++++++++++@@@+@@@@@@@@++++++++@@+++++@@@++++@@@@@@@@++++@",
"+++++++++++++++++@@@@@@@@@@@@++++++@@@@+++++@@@+++@@@@@@@@@@@@@@",
"++@@@@@++++++++++@@@@@@@@@@@@@+@+@@@@@@@++++@@@@+@@@@@@@@@@@@@@@",
"++@@@@@@@@+++@+++@@@@@@@@@@@@@@@@@@@@@@@@@+@@@@@@@@@@@@@@@@@@@@@",
"+@@@@@@@@@@@@@@+@@@@@@@@@@@@@@@@@@@@@@@@@@@@@@@@@@@@@@@@@@@@@@@@",
"@@@@@@@@@@@@@@@@@@@@@@@@@@@@@@@@@@@@@@@@@@@@@@@@@@@@@@@@@@@@@@@@"
};
