/* XPM */
static char *result[] = {
/* columns rows colors chars-per-pixel */
"64 64 21 1 ",
"  c black",
". c #1B3D20",
"X c #4C3726",
"o c #724827",
"O c #665C27",
"+ c #765140",
"@ c #98272D",
"# c #AA5117",
"$ c #F77622",
"% c #E43B44",
"& c #AA5154",
"* c #986E4C",
"= c #BE7941",
"- c #F6757A",
"; c #3E8948",
": c #B2A144",
"> c #C28569",
", c #E4A672",
"< c #FEE761",
"1 c #124E89",
"2 c None",
/* pixels */
"2222222222222222222222222222222222222222222222222222222222222222",
"2222222222222222222222222222222222222222222222222222222222222222",
"2222222222222222222222222222222222222222222222222222222222222222",
"2222222222222222222222222222222222222222222222222222222222222222",
"222222222222222222222222222,,,,,,,,,,,,,222222222222222222222222",
"222222222222222222222,,,,,,,,,,,,,,,,,,,,,2222222222222222222222",
"2222222222222222222,,,,,,,,,,,,,,,,,,,,,,,,,22222222222222222222",
"2222222222222222,,,,,,,,,,,,,,,,,,,,,,,,,,,,,,222222222222222222",
"222222222222222,,,,,,,,,,,,,,=========,,,,,,,,,,2222222222222222",
"2222222222222,,,,,,,,===================,,,,,,,,,222222222222222",
"222222222222,,,,,,,=======ooo=oooooo=======,,,,,,222222222222222",
"222222222222,,,,,,===========222222>>oooo===,,,,,,22222222222222",
"22222222222,,,,,,=====222==2222222222222oo====,,,,,2222222222222",
"22222222222,,,,,====222222222222222222222>oo===,,,,2222222222222",
"2222222222,,,,,====222222222222222222222222oo==,,,,,222222222222",
"2222222222,,,,===o22222222222222222222222222>oo=,,,,,22222222222",
"2222222222,,,,==o>22222222$222222222222222222=o=,,,,,22222222222",
"222222222,,,,==o=22222222$$$222222222222222222o==,,,,22222222222",
"22222222,,,,,==o22222222$$$$$22222222222222222,===,,,22222222222",
"22222222,,,,,==o2222$$$2$$$$$2222222;2222222222===,,,22222222222",
"22222222,,,,,=oo222$$$$$$$$$2222222;;;222222222===,,,22222222222",
"22222222,,,,,=o=222$$$$$<$$$$$$$$$;;;;222222222===,,,22222222222",
"22222222,,,,==o22222$$$<<<<$$$$$$;;;;;222222222===,,,22222222222",
"2222222,,,,,==o222;;;. <<<<<$$$$$;;;;;$22222222===,,,22222222222",
"2222222,,,,,==o22;;;;;;.:<<<$$$$$;;;;$$$2222222===,,,22222222222",
"2222222,,,,,==o22;;;;;;;.:<<$$$$;;;;$$$$$222222===,,,22222222222",
"2222222,,,,==oo222;;;;;;--<$$$$$2;;2$$$$$2222$===,,,,22222222222",
"2222222,,,,==o222-<<<-------222%%%%2$$$$$222$$===,,,,22222222222",
"2222222,,,,==o222<<<<<-----222%%%%%%2$$$$$2$$$===,,,,22222222222",
"2222222,,,,==o22>:<<<<-----2%%%%%%%22$$$$$2$$$===,,,,22222222222",
"2222222,,,,,=oo22&:::-;;;;-<<%%%%2$$$2$$<<<$$$=o=,,,,22222222222",
"2222222,,,,,*o-------;;;;;<<<<@%2$$$$$$<<<<<$22o,,,,,22222222222",
"2222222,,,,**--------;;;;.:<<::%22#$###<<<<<$22*,,,,,22222222222",
"222,,,,,,,,*&---------;.;;:O::%%%%>##;;<<<<<$$**,,,,,,,,,2222222",
"22,,,,,,,,,* &-----&*&* %%%:%%%;%%$$;;;;<<<$$$$$*,,,,,,,,,222222",
"2,,,,,,,,,,,,,*&&**,,,**%%%%%%;;;%$$$;;;;;;$$$$$$*,,,,,,,,,22222",
"2,,,,,,,,,,,,,,,,,,,,,*%%%%%%;;;;$$$$$;;;;;;$$$$#*,,,,,,,,,,2222",
"22,,,,,,,,,,,,,,,,,,,,*%%%%%%;;;;$$$$%*;;;;.$$$$#*,,,,,,,,,22222",
"22,,,,,,,,,,,,,,,,,,,,*%%%%%%;;;;%$%%* *.;;X***$*,,,,,,,,,,22222",
"22,,,,,,,,,,,,,,,,,,,,*%%%%%*;;;**%%**,,****,,****,,,,,,,,222222",
"22,,,,,,,,,,,,,,,,,,,,*@@%%%X*;******,,,,,,,,,,,,,,,,,,,,,222222",
"22,,,,,,,,,,,,,,,,,,,,,,@%@ ****,,,,,,,,,,,,,,,,,,,,,,,,,2222222",
"222,,,,,,,,,,,,,,,,,,,,,***,,,,,,,,,,,,,,,,,,,,,,,,,,,,,,2222222",
"222,,,,,,,,,,,,,,,,,,,,,,,,,,,,,,,,,,,,,,,,,,,,,,,,,,,,,,2222222",
"2222,,,,,,,,,,,,,,,,,,,,,,,,,,,,,,,,,,,,,,,,,,,,,,,,,,,,22222222",
"2222,,,,,,,,,,,,,,,,,,,,,,,,,,,,,,,,,,,,,,,,,,,,,,,,,,,,22222222",
"22222,,,,,,,,,,,,,,,,,,,,,,,,,,,,,,,,,,,,,,,,,,,,,,,,,,222222222",
"22222,,,,,,,,,,,,,,,,,,,,,,,,,,,,,,,,,,,,,,,,,,,,,,,,,,222222222",
"222222,,,,,,,,,,,,,,,,,,,,,,,,,,,,,,,,,,,,,,,,,,,,,,,,,222222222",
"222222,,,,,,,,,,,,,,,,,,,,,,,,,,,,,,,,,,,,,,,,,,,,,,,,2222222222",
"2222222,,*,,,,,,,,,,,,,,,,,,,,,,,,,,,,,,,,,,,,,,,,,,,,2222222222",
"2222222,,,,,,,,,,,,,,,,,,,,,,,,,,,,,,,,,,,,,,,,,,,,,*22222222222",
"22221111,,,,,,,,,,,,,,,,,,,,,,,,,,,,,,,,,,,,,,,,,,,,,22222222222",
"222111111,*,,,,,,*,,,,,,,,,,,,,,,,,,,,,,,,,,,,,,,,*,111122222222",
"222111111,,XX,,,,,,,,,,,,,,,,,,,,,,,,,,,,,,,,,,*,,*1111122222222",
"2221111111**,*,,*,,,,,,,,,,,,,,,,,,,,,,,,*,,,,,,,**1111122222222",
"2221111111 ***,,,,,,,,,,*,,,,,,,,,,,,,,,,,*,,***  11111122222222",
"2222111111* **XX*X***  *X****************  **,X **11111122222222",
"222211111111*************** * XXX***XX**********1111111122222222",
"2222111111111***XX* **+*********XX**X*X   *XXX*11111111222222222",
"2222211111111111111111111111111111111111111111111111111222222222",
"2222221111111111111111111111111111111111111111111111112222222222",
"2222221111111111111111111111111111111111111111111111112222222222",
"2222222222222222222222222222222222222222222222222222222222222222"
};
