/* XPM */
static char *result[] = {
/* columns rows colors chars-per-pixel */
"64 64 9 1 ",
"  c #265C42",
". c #A22633",
"X c #FF0044",
"o c #E43B44",
"O c #F6757A",
"+ c #3E8948",
"@ c #FEE761",
"# c #124E89",
"$ c None",
/* pixels */
"$$$$$$$$$$$$$$$$$$$$$$$$$$$$$$$$$$$$$$$$$$$$$$$$$$$$$$$$$$$$$$$$",
"$$$$$$$$$$$$$$$$$$$$$$$$$$$$$$$$$$$$$$$$$$$$$$$$$$$$$$$$$$$$$$$$",
"$$$$$$$$$$$$$$$$$$$$$$$$$$$$$$$$$$$$$$$$$$$$$$$$$$$$$$$$$$$$$$$$",
"$$$$$$$$$$$$$$$$$$$$$$$$$$$$$$$$$$$$$$$$$$$$$$$$$$$$$$$$$$$$$$$$",
"$$$$$$$$$$$$$$$$$$$$$$$$$$$$$$$$$$$$$$$$$$$$$$$$$$$$$$$$$$$$$$$$",
"$$$$$$$$$$$$$$$$$$$$$$$$$$$$$$$$$$$$$$$$$$$$$$$$$$$$$$$$$$$$$$$$",
"$$$$$$$$$$$$$$$$$$$$$$$$$$$$$$$$$$$$$$$$$$$$$$$$$$$$$$$$$$$$$$$$",
"$$$$$$$$$$$$$$$$$$$$$$$$$$$$$@$$$$$$$$$$$$$$$$$$$$$$$$$$$$$$$$$$",
"$$$$$$$$$$$$$$$$$$$$$$$$$$$$$@$$$$$$$$$$$$$$$$$$$$$$$$$$$$$$$$$$",
"$$$$$$$$$$$$$$$$$$$$$$$$$$$$$@$$$$$$$$$$$$$$$$$$$$$$$$$$$$$$$$$$",
"$$$$$$$$$$$$$$$$$$$$$$$$$$$$$$@$$$$$$$$$$$$$$$$$$$$$$$$$$$$$$$$$",
"$$$$$$$$$$$$$$$$$$$$$$$$$$$$$$@$$$$$XXXXXXXXXX$$$$$$$$$$$$$$$$$$",
"$$$$$$$$$$$$$$$$$$$$$$$$$$$$$$@$$$XX..........XX$$$$$$$$$$$$$$$$",
"$$$$$$$$$$$$$$$XXXXXXXXX$$$$$$@$XX..............X$$$$$$$$$$$$$$$",
"$$$$$$$$$$$$XXX.........XXX$$$@X................X$$$$$$$$$$$$$$$",
"$$$$$$$$$$$$X.............XX$$@.................X$$$$$$$$$$$$$$$",
"$$$$$$$$$$$X............@..XX@......@@........XXXX$$$$$$$$$$$$$$",
"$$$$$$$$$$$X............@...@@......@.......XXooooXX$$$$$$$$$$$$",
"$$$$$$$$$$$X.............@..@......@.......XooooooooXX$$$$$$$$$$",
"$$$$$$$$$$$X..............@@@.....@......XXoooooooooooX$$$$$$$$$",
"$$$$$$XXXXXXXX............X.@@..@@......XooooooooooooooX$$$$$$$$",
"$$$$$XXoooooooXXX.......@.X..@@@...@@..XoooooooooooooooX$$$$$$$$",
"$$$$$XoooooooooooXX......@...@....@@..XoooooooooooooooooX$$$$$$$",
"$$$$$XoooooooooooooXX....X@..@@..@@..XooooooooooooooooooX$$$$$$$",
"$$$$$XoooooooooooooooX...X@@@@@@@@...XooooooooooooooooooX$$$$$$$",
"$$$$XooooooooooooooooXX..X....@.....XoooooooooooooooooooX$$$$$$$",
"$$$$$XoooooooooooooooooX.X...@@....XooooooooooooooooooooX$$$$$$$",
"$$$$$XooooooooooooooooooXX....@...XoooooooooooooooooooooX$$$$$$$",
"$$$$$XoooooooooooooooooooX....@...XoooooooooooooooooooooX$$$$$$$",
"$$$$$$XooooooooooooooooooX....@..XooooooooooooooooooooooX$$$$$$$",
"$$$$$$XoooooooooooooooooooXX..@..XooooooooooooooooooooooX$$$$$$$",
"$$$$$$$XoooooooooooooooooooX..@..XoooooooooooooooooooooX$$$$$$$$",
"$$$$$$$XXoooooooooooooooooooX.@.XooooooooooooooooooooooX$$$$$$$$",
"$$$$$$$XXXoooooooooooooooooooX@.XooooooooooooooooooooooX$$$$$$$$",
"$$$$$$$$XXXoooooooooooooooooooXXooooooooooooooooooooooX$$$$$$$$$",
"$$$$$$$$XXXXooooooooooooooooooXXooooooooooooooooooooXX$$$$$$$$$$",
"$$$$$$$XOXXXXXoooooooooooooooooXoooooooooooooooooooXX$$$$$$$$$$$",
"$$$$$$XOOOXXXXXooooooooooooooooXooooooooooooooooooXXXX$$$$$$$$$$",
"$$$$$$XOOOOXXXXXooooooooooooooooXoooooooooooooooooXXXXX$$$$$$$$$",
"$$$$$$XOOOOOXXXXXXooooooooooooooXoooooooooooooooXXOOOOX$$$$$$$$$",
"$$$$$$XOOOOOOXXXXXXooooooooooooooXooooooooooooXXXOOOOOX$$$$$$$$$",
"$$$$$$$XOOOOOOXXXXXXXooooooooooooXoooooooooooXXOOOOOOOOX$$$$$$$$",
"$$$$$$$XOOOOOOOXXXXXXXoooooooooooXoooooooooXXXOOOOOOOOOX$$$$$$$$",
"$$$$$$##XOOOOOOOOXXXXXXooooooooooXooooooXXXXXOOOOOOOOOXX$$$$$$$$",
"$$$$$####XXOOOOOOOOXXXXXXooooooooXooooXXXXXOOOOOOOOOOOX$$$$$$$$$",
"$$$$$##++++XXOOOOOOOXXXXXXXoooooXXXXXXXXXOOOOOOOOOOXXX$$$$$$$$$$",
"$$$$$##+     XXXXXXOOOXXXXXXXXXXXXXOOOOOOOOOOOOOOXX#$$$$$$$$$$$$",
"$$$$$#+            XXXXXXX XXXXXXXOOOOOOOOOOXXXXX++#$$$$$$$$$$$$",
"$$$$$#+                     ++    XXXXXXXXXX      +##$$$$$$$$$$$",
"$$$$$#+                   ++++                    +###$$$$$$$$$$",
"$$$$$#++                 ++##++                   +###$$$$$$$$$$",
"$$$$$###+              +++####+                   +###$$$$$$$$$$",
"$$$$$####+            +####$###+                   +##$$$$$$$$$$",
"$$$$$$###++++     ++++####$$$###++                 +##$$$$$$$$$$",
"$$$$$$$$#####+++++######$$$$$####++                +###$$$$$$$$$",
"$$$$$$$$$#############$$$$$$$$#####++             ++###$$$$$$$$$",
"$$$$$$$$$$$$$#######$$$$$$$$$$$$#####+++        ++####$$$$$$$$$$",
"$$$$$$$$$$$$$$$$$$$$$$$$$$$$$$$$$$$$####++++###+######$$$$$$$$$$",
"$$$$$$$$$$$$$$$$$$$$$$$$$$$$$$$$$$$$$###############$$$$$$$$$$$$",
"$$$$$$$$$$$$$$$$$$$$$$$$$$$$$$$$$$$$$$$$$$$$$$$$$$$$$$$$$$$$$$$$",
"$$$$$$$$$$$$$$$$$$$$$$$$$$$$$$$$$$$$$$$$$$$$$$$$$$$$$$$$$$$$$$$$",
"$$$$$$$$$$$$$$$$$$$$$$$$$$$$$$$$$$$$$$$$$$$$$$$$$$$$$$$$$$$$$$$$",
"$$$$$$$$$$$$$$$$$$$$$$$$$$$$$$$$$$$$$$$$$$$$$$$$$$$$$$$$$$$$$$$$",
"$$$$$$$$$$$$$$$$$$$$$$$$$$$$$$$$$$$$$$$$$$$$$$$$$$$$$$$$$$$$$$$$"
};
