/* XPM */
static char *result[] = {
/* columns rows colors chars-per-pixel */
"64 64 6 1 ",
"  c #0099DB",
". c #8B9BB4",
"X c #C0CBDB",
"o c #C0CBDC",
"O c white",
"+ c None",
/* pixels */
"++++++++++++++++++++++++++++++++++++++++++++++++++++++++++++++++",
"++++++++++++++++++++++++++++++++++++++++++++++++++++++++++++++++",
"++++++++++++++++++++++++++++++++++++++++++++++++++++++++++++++++",
"+++++++++++++++++++++++++++++++++++++++++++++++++++XXX++++++++++",
"+++++++++++++++++++++++++++++++++++++++++++++++++XXXoXX+++++++++",
"++++++++++++++++++++++++++++++++++++++++++++XXXXXXoooXX+++++++++",
"+++++++++++++++++++++++++++++++++++++++++++XXoooooooXX++++++++++",
"+++++++++++++++++++++++++++++++++++++++++XXXooooooooX+++++++++++",
"++++++++++++++++++++++++++++++++++++++++XXooooOOOoooX+++++++++++",
"+++++++++++++++++++++++++++++++++++++++XXooOOOOOOOooX+++++++++++",
"++++++++++++++++++++++++++++++++++++++XXOOOOOOOOOooXX+++++++++++",
"++++++++++++++++++++++++++++++++++++XXOOOOOOOOoooooX++++++++++++",
"+++++++++++++++++++++++++++++++++++XXOOOOOOoooooooXX++++++++++++",
"+++++++++++++++++++++++++++++++++XXOOOOOooooooooooX+++++++++++++",
"++++++++++++++++++++++++++++++++XXOOOOooooooooooooX+++++++++++++",
"+++++++++++++++++++++++++++++++XXOOOOoooooooooooooX+++++++++++++",
"+++++++++++++++++++++++++++++XXXOOOoooooooooooooooX+++++++++++++",
"++++++++++++++++++++++++++++XXoOOOooooooooooooooooX+++++++++++++",
"++++++++++++++++++++++++++XXXoOOOOooooooooooooooooX+++++++++++++",
"+++++++++++++++++++++++++XXooOOOOoooooooooooooooooX+++++++++++++",
"++++++++++++++++++++++++XXooOOOOoooooooooooooooooXX+++++++++++++",
"+++++++++++++++++++++++XXoOOOOoooooooooooooooooooX++++++++++++++",
"++++++++++++++++++++++XXoOOOOooooooooooooooooooooX++++++++++++++",
"+++++++++++++++++++++XXoOOOOoooooooooooooooooooooX++++++++++++++",
"+++++++++++++++++++++XooOOOooooooooooooooooooooooX++++++++++++++",
"++++++++++++++++++++XXoOOOoooooooooooooooooooooooX++++++++++++++",
"+++++++++++++++++++XXoOOOooooooooooooooooooooooooXX+++++++++++++",
"+++++++++++++++++++XoOOOooooooooooooooooooooooooooX+++++++++++++",
"++++++++++++++++++XXOOOoooooooooooooooooooooooooooX+++++++++++++",
"+++++++++++++++++XXoOOOoooooooooooooooooooooooooooX+++++++++++++",
"++++++++++++++++XXoOOOooooooooooooooooooooooooooooX+++++++++++++",
"+++++++++++++++XXooOOOooooooooooooooooooooooooooooX+++++++++++++",
"+++++++++++++++XoooOOOooooooooooooooooooooooooooooX+++++++++++++",
"++++++++++++++XXooooOoooooooooooooooooooooooooooooX+++++++++++++",
"++++++++++++++XoooooooooooooooooooooooooooooooooooXX++++++++++++",
"+++++++++++++XXooooooooooooooooooooooooooooooooooooX++++++++++++",
"+++++++++++++Xooooooooooooooooooooooooooooooooooo.oX++++++++++++",
"++++++++++++XXoooooooooooooooooooooooooooooooooo...X++++++++++++",
"++++++++++++Xooooooooooooooooooooooooooooooooooo...X++++++++++++",
"+++++++++++XXooooooooooooooooooooooooooooooooooo...X++++++++++++",
"+++++++++++Xoooooooooooooooooooooooooooooooooooo..+X++++++++++++",
"++++++++++XXoooooooooooooooooooooooooooooooooooo..++++++++++++++",
"++++++++++Xooooooooooooooooooooooooooooooooooooo..++++++++++++++",
"+++++++++ooooooooooooooooooooooooooooooooooooooo...+++++++++++++",
"++++++++ oooooooooooooooooooooooooooooooooooooo....+X+++++++++++",
"+++++++ ooooooooooooooooooooooooooooooooooooooo.....X+++++++++++",
"++++++  oooooooooooooooooooooooooooooooooooooo......++++++++++++",
"++++++  oooooooooooooooooooooooooooooooooooooo......++++++++++++",
"+++++++ oooooooooooooooooooooooooooooooooooo.........+++++++++++",
"++++++++ ooooooooooooooooooooooooooooooooo...........o++++++++++",
"+++++++++ ooooooooooooooooooooooooooooo.............oo +++++++++",
"++++++++++ ooooooooooooooooooooooo.................ooo  ++++++++",
"+++++++++++    oooooooooooo......................oooo   ++++++++",
"++++++++++++      oooooooo......................oo     +++++++++",
"++++++++++++++++       oooo.........o.........oo    ++++++++++++",
"+++++++++++++++++++        ooooooooooooooooooo    ++++++++++++++",
"+++++++++++++++++++++++                         ++++++++++++++++",
"++++++++++++++++++++++++++++                  ++++++++++++++++++",
"++++++++++++++++++++++++++++++++++++++++++++++++++++++++++++++++",
"++++++++++++++++++++++++++++++++++++++++++++++++++++++++++++++++",
"++++++++++++++++++++++++++++++++++++++++++++++++++++++++++++++++",
"++++++++++++++++++++++++++++++++++++++++++++++++++++++++++++++++",
"++++++++++++++++++++++++++++++++++++++++++++++++++++++++++++++++",
"++++++++++++++++++++++++++++++++++++++++++++++++++++++++++++++++"
};
